<?xml version="1.0" encoding="UTF-8"?><svg id="Layer_1" xmlns="http://www.w3.org/2000/svg" xmlns:xlink="http://www.w3.org/1999/xlink" viewBox="0 0 273 273"><defs><style>.cls-1{fill:#3dda83;}.cls-1,.cls-2,.cls-3{stroke:#fff;stroke-miterlimit:10;}.cls-1,.cls-3{stroke-width:4.51px;}.cls-4{fill:#fff;}.cls-5,.cls-2,.cls-3{fill:none;}.cls-2{stroke-linecap:round;stroke-width:3.01px;}.cls-6{clip-path:url(#clippath);}</style><clipPath id="clippath"><path class="cls-5" d="M209.55,136.5c0,3.68-7.97,6.68-8.52,10.18-.55,3.49,6.07,8.95,4.97,12.32s-9.62,3.8-11.28,6.99,3,10.36.86,13.24-10.36.55-12.93,3.13-.37,10.79-3.31,12.87c-2.94,2.08-9.99-2.64-13.24-.98s-3.62,10.11-7.05,11.22-8.7-5.58-12.26-5.03c-3.56.55-6.5,8.52-10.18,8.52s-6.68-7.97-10.18-8.52c-3.49-.55-8.89,6.13-12.26,5.03s-3.86-9.62-7.05-11.22-10.3,3.13-13.24.98-.74-10.36-3.31-12.87-10.79-.18-12.93-3.13c-2.15-2.88,2.51-10.05.86-13.24s-10.18-3.49-11.28-6.99,5.52-8.7,4.97-12.32c-.55-3.49-8.52-6.5-8.52-10.18s7.97-6.68,8.52-10.18c.55-3.62-6.07-8.95-4.97-12.32s9.62-3.8,11.28-6.99-3-10.36-.86-13.24c2.15-2.88,10.36-.55,12.93-3.13s.37-10.79,3.31-12.87,9.99,2.64,13.24.98,3.62-10.11,7.05-11.22,8.7,5.58,12.26,5.03,6.5-8.52,10.18-8.52,6.68,7.97,10.18,8.52c3.49.55,8.89-6.13,12.26-5.03s3.86,9.62,7.05,11.22,10.3-3.13,13.24-.98.74,10.36,3.31,12.87,10.79.18,12.93,3.13c2.15,2.94-2.51,10.05-.86,13.24s10.18,3.49,11.28,6.99-5.52,8.7-4.97,12.32c.55,3.49,8.52,6.5,8.52,10.18Z"/></clipPath></defs><path class="cls-1" d="M209.55,136.5c0,3.68-7.97,6.68-8.52,10.18-.55,3.49,6.07,8.95,4.97,12.32s-9.62,3.8-11.28,6.99,3,10.36.86,13.24-10.36.55-12.93,3.13-.37,10.79-3.31,12.87c-2.94,2.08-9.99-2.64-13.24-.98s-3.62,10.11-7.05,11.22-8.7-5.58-12.26-5.03c-3.56.55-6.5,8.52-10.18,8.52s-6.68-7.97-10.18-8.52c-3.49-.55-8.89,6.13-12.26,5.03s-3.86-9.62-7.05-11.22-10.3,3.13-13.24.98-.74-10.36-3.31-12.87-10.79-.18-12.93-3.13c-2.15-2.88,2.51-10.05.86-13.24s-10.18-3.49-11.28-6.99,5.52-8.7,4.97-12.32c-.55-3.49-8.52-6.5-8.52-10.18s7.97-6.68,8.52-10.18c.55-3.62-6.07-8.95-4.97-12.32s9.62-3.8,11.28-6.99-3-10.36-.86-13.24c2.15-2.88,10.36-.55,12.93-3.13s.37-10.79,3.31-12.87,9.99,2.64,13.24.98,3.62-10.11,7.05-11.22,8.7,5.58,12.26,5.03,6.5-8.52,10.18-8.52,6.68,7.97,10.18,8.52c3.49.55,8.89-6.13,12.26-5.03s3.86,9.62,7.05,11.22,10.3-3.13,13.24-.98.74,10.36,3.31,12.87,10.79.18,12.93,3.13c2.15,2.94-2.51,10.05-.86,13.24s10.18,3.49,11.28,6.99-5.52,8.7-4.97,12.32c.55,3.49,8.52,6.5,8.52,10.18Z"/><g class="cls-6"><path class="cls-3" d="M189.14,237.8c-71.57.09-101.18-5.13-101.32-8.78-.25-6.51,93.29-8.32,92.98-15.15-.29-6.43-83.6-4.55-83.71-9.15-.11-4.26,71.48-9.82,71.36-12.96-.12-2.9-61.33-4.58-61.47-7.98-.14-3.22,54.82-8.42,54.68-12.58-.14-3.79-45.92-3.65-46.03-7.63-.1-3.56,36.58-7.33,36.45-11.82-.1-3.75-25.9-5.47-25.95-10.29-.03-2.92,12.97-2.22,12.97-11.82,0-3.33.02-3.53.02-8.04"/><circle class="cls-4" cx="139.12" cy="117.77" r="8.29"/></g><path class="cls-2" d="M102.39,102.62c2.26.8.91,4.64,3.18,5.44s3.62-3.05,5.88-2.26.91,4.64,3.18,5.44,3.62-3.05,5.89-2.26.92,4.64,3.18,5.44"/><path class="cls-2" d="M155.18,121.16c2.26.8.91,4.64,3.18,5.44s3.62-3.05,5.88-2.26.91,4.64,3.18,5.44,3.62-3.05,5.89-2.26.92,4.64,3.18,5.44"/><path class="cls-2" d="M142.81,102.05c.8-2.26,4.64-.91,5.44-3.18s-3.05-3.62-2.26-5.88,4.64-.91,5.44-3.18-3.05-3.62-2.26-5.89,4.64-.92,5.44-3.18"/><path class="cls-2" d="M102.55,133.34c2.16-1.04,3.85,2.47,6.01,1.44s.48-4.55,2.64-5.59,3.85,2.47,6.02,1.43.48-4.55,2.65-5.59,3.85,2.47,6.02,1.43"/><path class="cls-2" d="M152.99,109.12c2.16-1.04,3.85,2.47,6.01,1.44s.48-4.55,2.64-5.59,3.85,2.47,6.02,1.43.48-4.55,2.65-5.59,3.85,2.47,6.02,1.43"/><path class="cls-2" d="M114.45,86.54c1.57,1.81-.89,3.95.68,5.76s4.04-.33,5.61,1.48-.89,3.95.69,5.76,4.04-.33,5.62,1.49-.89,3.96.69,5.77"/><path class="cls-2" d="M151.15,128.78c1.57,1.81-.89,3.95.68,5.76s4.04-.33,5.61,1.48-.89,3.95.69,5.76,4.04-.33,5.62,1.49-.89,3.96.69,5.77"/></svg>