<?xml version="1.0" encoding="UTF-8"?>
<svg id="Layer_1" data-name="Layer 1" xmlns="http://www.w3.org/2000/svg" baseProfile="tiny" version="1.2" viewBox="0 0 273 273">
  <rect x="90.1" y="78.4" width="33.3" height="116.6" fill="#fff" stroke-width="0"/>
  <rect x="155.7" y="78.4" width="33.3" height="116.6" fill="#fff" stroke-width="0"/>
  <path d="M255.6,136.5c0,6-13,10.9-13.9,16.6s9.9,14.6,8.1,20.1-15.7,6.2-18.4,11.4,4.9,16.9,1.4,21.6-16.9.9-21.1,5.1-.6,17.6-5.4,21c-4.8,3.4-16.3-4.3-21.6-1.6s-5.9,16.5-11.5,18.3-14.2-9.1-20-8.2-10.6,13.9-16.6,13.9-10.9-13-16.6-13.9-14.5,10-20,8.2-6.3-15.7-11.5-18.3-16.8,5.1-21.6,1.6-1.2-16.9-5.4-21-17.6-.3-21.1-5.1c-3.5-4.7,4.1-16.4,1.4-21.6s-16.6-5.7-18.4-11.4,9-14.2,8.1-20.1c-.9-5.7-13.9-10.6-13.9-16.6s13-10.9,13.9-16.6c.9-5.9-9.9-14.6-8.1-20.1s15.7-6.2,18.4-11.4-4.9-16.9-1.4-21.6c3.5-4.7,16.9-.9,21.1-5.1s.6-17.6,5.4-21c4.8-3.4,16.3,4.3,21.6,1.6s5.9-16.5,11.5-18.3,14.2,9.1,20,8.2,10.6-13.9,16.6-13.9,10.9,13,16.6,13.9,14.5-10,20-8.2,6.3,15.7,11.5,18.3,16.8-5.1,21.6-1.6,1.2,16.9,5.4,21,17.6.3,21.1,5.1-4.1,16.4-1.4,21.6,16.6,5.7,18.4,11.4-9,14.2-8.1,20.1c.9,5.7,13.9,10.6,13.9,16.6Z" fill="none" stroke="#fff" stroke-miterlimit="10" stroke-width="1.9"/>
</svg>